<?xml version="1.0" encoding="iso-8859-1"?>
<!-- Generator: Adobe Illustrator 19.0.0, SVG Export Plug-In . SVG Version: 6.00 Build 0)  -->
<svg version="1.1" id="Capa_1" xmlns="http://www.w3.org/2000/svg" xmlns:xlink="http://www.w3.org/1999/xlink" x="0px" y="0px"
	 viewBox="0 0 512 512" style="enable-background:new 0 0 512 512;" xml:space="preserve">
<g>
	<g>
		<g>
			<path d="M202.667,309.333c5.896,0,10.667-4.771,10.667-10.667v-64c0-17.646-14.354-32-32-32c-17.646,0-32,14.354-32,32v64
				c0,5.896,4.771,10.667,10.667,10.667s10.667-4.771,10.667-10.667V288H192v10.667C192,304.563,196.771,309.333,202.667,309.333z
				 M170.667,266.667v-32c0-5.885,4.781-10.667,10.667-10.667c5.885,0,10.667,4.781,10.667,10.667v32H170.667z"/>
			<path d="M256,213.333c0-5.896-4.771-10.667-10.667-10.667c-5.896,0-10.667,4.771-10.667,10.667v85.333
				c0,5.896,4.771,10.667,10.667,10.667H288c5.896,0,10.667-4.771,10.667-10.667c0-5.896-4.771-10.667-10.667-10.667h-32V213.333z"
				/>
			<path d="M341.333,309.333c17.646,0,32-14.354,32-32v-64c0-5.896-4.771-10.667-10.667-10.667S352,207.438,352,213.333v64
				c0,5.885-4.781,10.667-10.667,10.667c-5.885,0-10.667-4.781-10.667-10.667v-64c0-5.896-4.771-10.667-10.667-10.667
				s-10.667,4.771-10.667,10.667v64C309.333,294.979,323.688,309.333,341.333,309.333z"/>
			<path d="M503.023,186.925c-21.674-79.305-82.873-141.917-159.547-171.85l-4.272-1.668c-5.497-2.145-11.695,0.564-13.843,6.054
				l-7.779,19.872c-2.148,5.488,0.567,11.677,6.064,13.821l4.467,1.743c65.107,25.397,117.063,78.863,134.504,146.452
				c7.443,28.847,8.65,58.435,4.291,86.976l-27.425,0.152c-3.297,0.021-6.417,1.563-8.421,4.189
				c-2.014,2.615-2.692,6.022-1.847,9.211l23.426,88.449c1.085,4.095,4.497,7.158,8.682,7.814c0.553,0.083,1.106,0.125,1.649,0.125
				c3.61,0,7.023-1.834,9.005-4.928c13.864-21.68,24.185-45.083,30.956-69.771c0,0,1.822-7.857,2.684-11.711
				c0.837-3.725,2.481-11.977,2.506-12.395C514.471,262.556,513.196,224.151,503.023,186.925z"/>
			<path d="M412.797,417.525c-3.686-4.603-10.411-5.349-15.019-1.667l-3.745,2.992c-54.581,43.603-126.931,61.798-194.271,43.085
				c-28.741-7.988-55.007-21.737-77.581-39.777l13.581-23.792c1.63-2.861,1.852-6.331,0.578-9.376
				c-1.261-3.049-3.878-5.339-7.066-6.202l-88.426-23.967c-4.093-1.11-8.456,0.31-11.118,3.6c-0.348,0.436-0.661,0.893-0.933,1.364
				c-1.805,3.122-1.92,6.989-0.228,10.251c11.872,22.829,27.009,43.455,45.036,61.655c0,0,5.903,5.504,8.815,8.176
				c2.812,2.587,9.147,8.134,9.497,8.364c28.832,23.941,62.779,42.042,100.151,51.857c79.619,20.91,164.523-0.705,228.822-52.042
				l3.583-2.86c4.608-3.681,5.358-10.395,1.671-14.997L412.797,417.525z"/>
			<path d="M46.134,298.612l-0.723-4.736c-10.526-68.999,9.867-140.66,59.767-189.536c21.299-20.859,46.356-36.698,73.29-47.198
				l13.844,23.639c1.667,2.842,4.565,4.768,7.843,5.187c3.275,0.434,6.57-0.682,8.913-3.007l65-64.482
				c3.008-2.986,3.959-7.468,2.436-11.414c-0.205-0.521-0.445-1.02-0.716-1.489c-1.805-3.122-5.103-5.156-8.777-5.323
				c-25.736-1.149-51.194,1.627-75.992,8.117c0,0-7.726,2.353-11.499,3.535c-3.65,1.138-11.628,3.842-12.003,4.031
				c-35.181,12.962-67.853,33.266-95.051,60.676C14.522,135.006-9.183,219.233,3.193,300.503l0.689,4.528
				c0.888,5.826,6.336,9.831,12.172,8.944l21.125-3.209C43.013,309.879,47.023,304.436,46.134,298.612z"/>
		</g>
	</g>
</g>
<g>
</g>
<g>
</g>
<g>
</g>
<g>
</g>
<g>
</g>
<g>
</g>
<g>
</g>
<g>
</g>
<g>
</g>
<g>
</g>
<g>
</g>
<g>
</g>
<g>
</g>
<g>
</g>
<g>
</g>
</svg>
