<svg id="Layer_3" enable-background="new 0 0 64 64" height="512" viewBox="0 0 64 64" width="512" xmlns="http://www.w3.org/2000/svg"><g><path d="m62 7h-60c-.553 0-1 .448-1 1v40c0 .553.447 1 1 1h37.78c.272.302.6.549.974.721l-1.716 6.005c-.112.395.027.818.354 1.067.325.25.77.276 1.123.064l4.485-2.691 4.485 2.691c.16.096.337.143.515.143.216 0 .43-.069.608-.207.326-.249.466-.673.354-1.067l-1.716-6.005c.373-.172.701-.419.974-.721h11.78c.553 0 1-.447 1-1v-40c0-.552-.447-1-1-1zm-23.807 36h-28.32c-.362-1.403-1.47-2.511-2.873-2.873v-24.253c1.403-.363 2.511-1.47 2.873-2.874h44.254c.362 1.404 1.47 2.511 2.873 2.874v24.253c-1.403.362-2.511 1.47-2.873 2.873h-2.319c-.181-.503-.479-.956-.891-1.299.055-.227.083-.463.083-.701 0-1.654-1.346-3-3-3-.238 0-.474.028-.701.083-.559-.672-1.396-1.083-2.299-1.083s-1.74.411-2.299 1.083c-.227-.055-.463-.083-.701-.083-1.654 0-3 1.346-3 3 0 .238.028.474.083.701-.412.343-.709.796-.89 1.299zm7.322 9.143c-.316-.189-.713-.189-1.029 0l-2.828 1.697 1.104-3.864c.557.633 1.364 1.024 2.238 1.024s1.681-.391 2.238-1.025l1.104 3.864zm3.811-7.205c-.293.103-.521.335-.618.63-.098.295-.053.618.122.875.111.163.17.356.17.557 0 .552-.448 1-1 1-.201 0-.394-.059-.558-.17-.258-.175-.58-.222-.875-.122-.295.097-.527.325-.63.618-.141.403-.518.674-.937.674s-.796-.271-.938-.674c-.103-.293-.335-.521-.63-.618-.103-.034-.208-.051-.313-.051-.198 0-.394.059-.562.173-.163.111-.356.17-.557.17-.552 0-1-.448-1-1 0-.201.059-.394.17-.558.175-.257.22-.58.122-.875-.097-.295-.325-.527-.618-.63-.403-.141-.674-.518-.674-.937s.271-.796.674-.938c.293-.103.521-.335.618-.63.098-.295.053-.618-.122-.875-.111-.163-.17-.356-.17-.557 0-.552.448-1 1-1 .201 0 .394.059.558.17.257.175.578.22.875.122.295-.097.527-.325.63-.618.141-.403.518-.674.937-.674s.796.271.938.674c.103.293.335.521.63.618.295.098.617.053.875-.122.163-.111.356-.17.557-.17.552 0 1 .448 1 1 0 .201-.059.394-.17.558-.175.257-.22.58-.122.875.097.295.325.527.618.63.403.141.674.518.674.937s-.271.796-.674.938zm11.674 2.062h-10c0-.238-.028-.474-.083-.701.412-.342.709-.796.891-1.299h3.192c.553 0 1-.447 1-1 0-1.103.897-2 2-2 .553 0 1-.447 1-1v-26c0-.552-.447-1-1-1-1.103 0-2-.897-2-2 0-.552-.447-1-1-1h-46c-.553 0-1 .448-1 1 0 1.103-.897 2-2 2-.553 0-1 .448-1 1v26c0 .553.447 1 1 1 1.103 0 2 .897 2 2 0 .553.447 1 1 1h29.193c.181.503.479.956.891 1.299-.056.227-.084.463-.084.701h-36v-38h58z"/><path d="m29.455 26.869 1.838 1.838c.195.195.451.293.707.293s.512-.098.707-.293l1.838-1.838c2.175-2.174 3.975-4.671 5.35-7.422.123-.247.14-.533.044-.792-.095-.258-.291-.466-.545-.575l-7-3c-.25-.108-.537-.108-.787 0l-7 3c-.254.108-.45.316-.545.575-.096.259-.079.545.044.792 1.374 2.751 3.174 5.248 5.349 7.422zm2.545-9.781 5.612 2.405c-1.205 2.188-2.71 4.19-4.481 5.962l-1.131 1.131-1.131-1.131c-1.771-1.771-3.276-3.773-4.481-5.962z"/><path d="m22 31h20v2h-20z"/><path d="m24 35h16v2h-16z"/><path d="m11 39h10v2h-10z"/><path d="m58.5 13c.827 0 1.5-.673 1.5-1.5s-.673-1.5-1.5-1.5-1.5.673-1.5 1.5.673 1.5 1.5 1.5z"/><path d="m58.5 43c-.827 0-1.5.673-1.5 1.5s.673 1.5 1.5 1.5 1.5-.673 1.5-1.5-.673-1.5-1.5-1.5z"/><path d="m5.5 46c.827 0 1.5-.673 1.5-1.5s-.673-1.5-1.5-1.5-1.5.673-1.5 1.5.673 1.5 1.5 1.5z"/><path d="m5.5 13c.827 0 1.5-.673 1.5-1.5s-.673-1.5-1.5-1.5-1.5.673-1.5 1.5.673 1.5 1.5 1.5z"/></g></svg>