<?xml version="1.0"?>
<svg xmlns="http://www.w3.org/2000/svg" width="512" height="512" viewBox="0 0 128 128"><g><path d="M64,91.964a10.5,10.5,0,1,0,10.5,10.5A10.514,10.514,0,0,0,64,91.964Zm0,17.5a7,7,0,1,1,7-7A7.01,7.01,0,0,1,64,109.469Z"/><path d="M82.875,29.53h-.063V1.747A1.75,1.75,0,0,0,81.062,0H46.937a1.751,1.751,0,0,0-1.75,1.75V29.53h-.062a13.766,13.766,0,0,0-13.75,13.75v19.1a6.757,6.757,0,0,0,6.75,6.75h4.749L38.743,99.006a25.5,25.5,0,1,0,50.514,0L85.126,69.129h4.749a6.757,6.757,0,0,0,6.75-6.75V43.28A13.766,13.766,0,0,0,82.875,29.53ZM79.312,18.764H69.75v-4.5h9.562Zm-9.562,3.5h9.562V29.53H69.75Zm9.562-11.5H69.75V3.5h9.562ZM66.25,3.5V29.53h-4.5V3.5ZM48.687,14.264H58.25v4.5H48.687ZM58.25,3.5v7.267H48.687V3.5ZM48.687,22.264H58.25V29.53H48.687Zm31.9,94.685A22,22,0,0,1,42.21,99.486l5.318-38.463a6.277,6.277,0,0,1,6.192-5.394h3.53v8.748A4.756,4.756,0,0,0,62,69.127h4a4.756,4.756,0,0,0,4.75-4.75V55.629h3.53a6.277,6.277,0,0,1,6.192,5.394L85.79,99.486A21.988,21.988,0,0,1,80.586,116.949ZM67.25,53.879v10.5A1.252,1.252,0,0,1,66,65.627H62a1.251,1.251,0,0,1-1.25-1.25V43.382A1.251,1.251,0,0,1,62,42.132h4a1.252,1.252,0,0,1,1.25,1.25Zm25.875,8.5a3.254,3.254,0,0,1-3.25,3.25H84.642l-.7-5.086a9.791,9.791,0,0,0-9.658-8.414H70.75V43.382A4.756,4.756,0,0,0,66,38.632H62a4.756,4.756,0,0,0-4.75,4.75v8.747H53.72a9.793,9.793,0,0,0-9.659,8.414l-.7,5.086H38.125a3.254,3.254,0,0,1-3.25-3.25V43.28a10.261,10.261,0,0,1,10.25-10.25h37.75a10.261,10.261,0,0,1,10.25,10.25Z"/></g></svg>
