<svg id="upload" xmlns="http://www.w3.org/2000/svg" width="39.784" height="44.205" viewBox="0 0 39.784 44.205">
  <path id="Path_56" data-name="Path 56" d="M25.034,9.278,18.4,2.648a2.209,2.209,0,0,0-3.125,0L8.647,9.278A2.21,2.21,0,1,0,11.773,12.4l2.858-2.858V35.153a2.21,2.21,0,0,0,4.42,0V9.546L21.909,12.4a2.21,2.21,0,1,0,3.125-3.125Z" transform="translate(3.051 -2)" fill="#6563ff"/>
  <path id="Path_57" data-name="Path 57" d="M36.153,9H25.1V26.682a2.21,2.21,0,1,1-4.42,0V9H9.631A6.638,6.638,0,0,0,3,15.631V31.1a6.638,6.638,0,0,0,6.631,6.631H36.153A6.638,6.638,0,0,0,42.784,31.1V15.631A6.638,6.638,0,0,0,36.153,9Z" transform="translate(-3 6.472)" fill="#b2b1ff"/>
</svg>
