<?xml version="1.0" standalone="no"?>
<!DOCTYPE svg PUBLIC "-//W3C//DTD SVG 20010904//EN"
 "http://www.w3.org/TR/2001/REC-SVG-20010904/DTD/svg10.dtd">
<svg version="1.0" xmlns="http://www.w3.org/2000/svg"
 width="268.000000pt" height="83.000000pt" viewBox="0 0 268.000000 83.000000"
 preserveAspectRatio="xMidYMid meet">

<g transform="translate(0.000000,83.000000) scale(0.100000,-0.100000)"
fill="#000000" stroke="none">
<path d="M1085 774 c-284 -17 -544 -46 -670 -74 -85 -19 -206 -52 -202 -56 2
-2 46 7 99 20 111 29 308 59 498 78 182 18 888 18 1070 0 174 -17 371 -47 478
-72 99 -24 122 -21 30 3 -141 38 -330 67 -563 87 -124 11 -634 21 -740 14z"/>
<path d="M714 547 c-3 -9 -4 -30 -2 -49 3 -31 5 -33 43 -33 l40 0 0 45 c0 45
0 45 -38 48 -26 2 -39 -1 -43 -11z"/>
<path d="M2222 548 c-13 -13 -16 -47 -6 -72 4 -11 19 -16 44 -16 40 0 50 11
50 54 0 29 -18 46 -50 46 -14 0 -31 -5 -38 -12z"/>
<path d="M163 535 c-40 -17 -53 -42 -53 -98 0 -33 6 -51 25 -71 l24 -26 169 0
c117 0 172 4 180 12 7 7 12 29 12 50 0 53 -18 59 -157 56 -97 -2 -118 -6 -118
-18 0 -12 21 -16 115 -18 119 -3 142 -10 120 -37 -10 -12 -38 -15 -151 -15
-126 0 -141 2 -159 20 -28 28 -27 84 2 104 18 13 54 16 185 16 157 0 198 8
162 31 -24 15 -319 10 -356 -6z"/>
<path d="M1002 538 c-7 -7 -12 -40 -12 -74 0 -88 -10 -94 -167 -94 -154 0
-163 6 -163 105 0 58 -2 65 -20 65 -18 0 -20 -7 -20 -73 0 -125 25 -140 224
-135 133 3 136 4 163 30 23 24 28 38 31 96 3 50 0 71 -10 80 -11 9 -17 9 -26
0z"/>
<path d="M1194 543 c-42 -8 -69 -50 -69 -105 0 -42 4 -53 28 -74 30 -25 77
-33 77 -11 0 6 -13 20 -30 29 -39 22 -49 62 -23 96 l20 27 172 3 c157 2 172 4
169 20 -3 15 -20 17 -163 18 -88 1 -170 0 -181 -3z"/>
<path d="M1636 543 c-3 -4 -6 -44 -6 -89 0 -119 -7 -115 213 -112 237 4 239
21 5 28 l-173 5 -3 82 c-2 57 -7 83 -16 86 -8 3 -17 3 -20 0z"/>
<path d="M2130 535 c-8 -10 -11 -37 -8 -80 3 -55 8 -70 31 -93 27 -26 31 -27
163 -30 199 -5 224 10 224 135 0 66 -2 73 -20 73 -18 0 -20 -7 -20 -65 0 -99
-9 -105 -163 -105 -157 0 -167 5 -167 94 0 69 -17 99 -40 71z"/>
<path d="M1283 403 c-8 -3 -13 -23 -13 -49 0 -39 3 -44 27 -50 36 -9 57 7 61
47 5 46 -31 71 -75 52z"/>
<path d="M1400 355 c0 -12 14 -15 70 -15 56 0 70 3 70 15 0 12 -14 15 -70 15
-56 0 -70 -3 -70 -15z"/>
</g>
</svg>
